<svg width="512" height="512" viewBox="0 0 512 512" fill="none" xmlns="http://www.w3.org/2000/svg">
  <defs>
    <linearGradient id="buildingGradient" x1="0%" y1="0%" x2="0%" y2="100%">
      <stop offset="0%" style="stop-color:#667eea;stop-opacity:1" />
      <stop offset="100%" style="stop-color:#764ba2;stop-opacity:1" />
    </linearGradient>
  </defs>

  <!-- Main building body - wider and centered -->
  <rect x="106" y="120" width="300" height="280" rx="12" fill="url(#buildingGradient)"/>

  <!-- Windows grid (5 columns x 5 rows) -->
  <g fill="#ffffff" opacity="0.9">
    <!-- Row 1 -->
    <rect x="130" y="150" width="40" height="30" rx="4"/>
    <rect x="186" y="150" width="40" height="30" rx="4"/>
    <rect x="242" y="150" width="40" height="30" rx="4"/>
    <rect x="298" y="150" width="40" height="30" rx="4"/>
    <rect x="354" y="150" width="40" height="30" rx="4"/>

    <!-- Row 2 -->
    <rect x="130" y="195" width="40" height="30" rx="4"/>
    <rect x="186" y="195" width="40" height="30" rx="4"/>
    <rect x="242" y="195" width="40" height="30" rx="4"/>
    <rect x="298" y="195" width="40" height="30" rx="4"/>
    <rect x="354" y="195" width="40" height="30" rx="4"/>

    <!-- Row 3 -->
    <rect x="130" y="240" width="40" height="30" rx="4"/>
    <rect x="186" y="240" width="40" height="30" rx="4"/>
    <rect x="242" y="240" width="40" height="30" rx="4"/>
    <rect x="298" y="240" width="40" height="30" rx="4"/>
    <rect x="354" y="240" width="40" height="30" rx="4"/>

    <!-- Row 4 -->
    <rect x="130" y="285" width="40" height="30" rx="4"/>
    <rect x="186" y="285" width="40" height="30" rx="4"/>
    <rect x="242" y="285" width="40" height="30" rx="4"/>
    <rect x="298" y="285" width="40" height="30" rx="4"/>
    <rect x="354" y="285" width="40" height="30" rx="4"/>

    <!-- Row 5 -->
    <rect x="130" y="330" width="40" height="30" rx="4"/>
    <rect x="186" y="330" width="40" height="30" rx="4"/>
    <!-- Door space in center -->
    <rect x="298" y="330" width="40" height="30" rx="4"/>
    <rect x="354" y="330" width="40" height="30" rx="4"/>
  </g>

  <!-- Entrance door -->
  <rect x="232" y="335" width="50" height="65" rx="6" fill="#1e293b"/>
  <circle cx="268" cy="368" r="4" fill="#fbbf24"/>

  <!-- Roof (wider) -->
  <path d="M 86,120 L 256,60 L 426,120 Z" fill="#1e293b"/>

  <!-- Euro symbol badge (small, top right) -->
  <g transform="translate(380, 100)">
    <circle cx="0" cy="0" r="32" fill="#fbbf24"/>
    <text x="0" y="13" font-family="Arial, sans-serif" font-size="40" font-weight="bold" fill="#1e293b" text-anchor="middle">€</text>
  </g>
</svg>
